<svg width="19" height="19" viewBox="0 0 19 19" fill="none" xmlns="http://www.w3.org/2000/svg">
<mask id="mask0_6007_3449" style="mask-type:alpha" maskUnits="userSpaceOnUse" x="0" y="0" width="19" height="19">
<rect width="19" height="19" rx="2" fill="#D9D9D9"/>
</mask>
<g mask="url(#mask0_6007_3449)">
<path d="M8.70801 12.2918C8.70801 11.1873 7.81258 10.2918 6.70801 10.2918H4.74967C4.31245 10.2918 3.95801 9.93739 3.95801 9.50016C3.95801 9.06294 4.31245 8.7085 4.74967 8.7085H6.70801C7.81258 8.7085 8.70801 7.81307 8.70801 6.7085V4.75016C8.70801 4.31294 9.06245 3.9585 9.49967 3.9585C9.9369 3.9585 10.2913 4.31294 10.2913 4.75016V6.7085C10.2913 7.81307 11.1868 8.7085 12.2913 8.7085H14.2497C14.6869 8.7085 15.0413 9.06294 15.0413 9.50016C15.0413 9.93739 14.6869 10.2918 14.2497 10.2918H12.2913C11.1868 10.2918 10.2913 11.1873 10.2913 12.2918V14.2502C10.2913 14.6874 9.9369 15.0418 9.49967 15.0418C9.06245 15.0418 8.70801 14.6874 8.70801 14.2502V12.2918Z" fill="#A4DDB0"/>
</g>
</svg>
