<svg width="6" height="11" viewBox="0 0 6 11" fill="none" xmlns="http://www.w3.org/2000/svg">
<path d="M1.07647 10.5918C1.18852 10.5921 1.29923 10.5674 1.40046 10.5194C1.5017 10.4714 1.59089 10.4013 1.66147 10.3143L5.28397 5.81426C5.39429 5.68006 5.45459 5.51173 5.45459 5.33801C5.45459 5.16429 5.39429 4.99596 5.28397 4.86176L1.53397 0.36176C1.40667 0.208597 1.22374 0.112279 1.02542 0.0939939C0.827098 0.0757091 0.629637 0.136956 0.476475 0.26426C0.323312 0.391563 0.226994 0.574497 0.208709 0.772817C0.190424 0.971137 0.25167 1.1686 0.378974 1.32176L3.73147 5.34176L0.491475 9.36176C0.399763 9.47185 0.341505 9.60591 0.323596 9.74807C0.305686 9.89023 0.328873 10.0345 0.390415 10.1639C0.451957 10.2933 0.549277 10.4024 0.670859 10.4782C0.792442 10.554 0.933199 10.5934 1.07647 10.5918Z" fill="#0A2647"/>
</svg>
