<svg width="40" height="40" viewBox="0 0 40 40" fill="none" xmlns="http://www.w3.org/2000/svg">
<mask id="mask0_4_2548" style="mask-type:alpha" maskUnits="userSpaceOnUse" x="0" y="0" width="40" height="40">
<rect width="40" height="40" fill="#D9D9D9"/>
</mask>
<g mask="url(#mask0_4_2548)">
<path d="M25.5 17.0833L31.375 11.1667L30.2083 10L25.5 14.7083L23.125 12.3333L21.9583 13.5417L25.5 17.0833ZM5 33.3333V30H25V33.3333H5ZM26.6667 21.6667C24.3611 21.6667 22.3958 20.8542 20.7708 19.2292C19.1458 17.6042 18.3333 15.6389 18.3333 13.3333C18.3333 11.0278 19.1458 9.0625 20.7708 7.4375C22.3958 5.8125 24.3611 5 26.6667 5C28.9722 5 30.9375 5.8125 32.5625 7.4375C34.1875 9.0625 35 11.0278 35 13.3333C35 15.6389 34.1875 17.6042 32.5625 19.2292C30.9375 20.8542 28.9722 21.6667 26.6667 21.6667ZM5 20V16.6667H15.5C15.6944 17.2778 15.9167 17.8611 16.1667 18.4167C16.4167 18.9722 16.7222 19.5 17.0833 20H5ZM5 26.6667V23.3333H20.6667C21.3056 23.7222 21.9861 24.0486 22.7083 24.3125C23.4306 24.5764 24.1944 24.7639 25 24.875V26.6667H5Z" fill="#485D75"/>
</g>
</svg>
