<svg width="35" height="35" viewBox="0 0 35 35" fill="none" xmlns="http://www.w3.org/2000/svg">
<mask id="mask0_4_2540" style="mask-type:alpha" maskUnits="userSpaceOnUse" x="0" y="0" width="35" height="35">
<rect width="35" height="35" fill="#D9D9D9"/>
</mask>
<g mask="url(#mask0_4_2540)">
<path d="M5.83329 26.25V14.5834V15.0573V8.75004V26.25ZM5.83329 11.6667H29.1666V8.75004H5.83329V11.6667ZM16.8802 29.1667H5.83329C5.03121 29.1667 4.34458 28.8811 3.7734 28.3099C3.20222 27.7388 2.91663 27.0521 2.91663 26.25V8.75004C2.91663 7.94796 3.20222 7.26133 3.7734 6.69014C4.34458 6.11896 5.03121 5.83337 5.83329 5.83337H29.1666C29.9687 5.83337 30.6553 6.11896 31.2265 6.69014C31.7977 7.26133 32.0833 7.94796 32.0833 8.75004V16.5157C31.2326 15.908 30.3029 15.4341 29.2942 15.0938C28.2855 14.7535 27.2222 14.5834 26.1041 14.5834C24.7187 14.5834 23.4123 14.8447 22.1849 15.3672C20.9574 15.8898 19.8819 16.6007 18.9583 17.5H5.83329V26.25H16.0052C16.0781 26.7605 16.1875 27.2587 16.3333 27.7448C16.4791 28.2309 16.6614 28.7049 16.8802 29.1667ZM24.6458 32.0834L24.2083 29.8959C23.9166 29.7743 23.6432 29.6467 23.388 29.5131C23.1328 29.3794 22.8715 29.2153 22.6041 29.0209L20.4895 29.6771L19.0312 27.198L20.7083 25.7396C20.6597 25.4237 20.6354 25.1077 20.6354 24.7917C20.6354 24.4757 20.6597 24.1598 20.7083 23.8438L19.0312 22.3855L20.4895 19.9063L22.6041 20.5625C22.8715 20.3681 23.1328 20.204 23.388 20.0704C23.6432 19.9367 23.9166 19.8091 24.2083 19.6875L24.6458 17.5H27.5625L28 19.6875C28.2916 19.8091 28.5651 19.9367 28.8203 20.0704C29.0755 20.204 29.3368 20.3681 29.6041 20.5625L31.7187 19.9063L33.177 22.3855L31.5 23.8438C31.5486 24.1598 31.5729 24.4757 31.5729 24.7917C31.5729 25.1077 31.5486 25.4237 31.5 25.7396L33.177 27.198L31.7187 29.6771L29.6041 29.0209C29.3368 29.2153 29.0755 29.3794 28.8203 29.5131C28.5651 29.6467 28.2916 29.7743 28 29.8959L27.5625 32.0834H24.6458ZM26.1041 27.7084C26.9062 27.7084 27.5928 27.4228 28.164 26.8516C28.7352 26.2804 29.0208 25.5938 29.0208 24.7917C29.0208 23.9896 28.7352 23.303 28.164 22.7318C27.5928 22.1606 26.9062 21.875 26.1041 21.875C25.302 21.875 24.6154 22.1606 24.0442 22.7318C23.473 23.303 23.1875 23.9896 23.1875 24.7917C23.1875 25.5938 23.473 26.2804 24.0442 26.8516C24.6154 27.4228 25.302 27.7084 26.1041 27.7084Z" fill="#485D75"/>
</g>
</svg>
