<svg width="28" height="27" viewBox="0 0 28 27" fill="none" xmlns="http://www.w3.org/2000/svg">
<mask id="mask0_6005_2990" style="mask-type:alpha" maskUnits="userSpaceOnUse" x="0" y="0" width="28" height="27">
<rect x="0.5" width="27" height="27" rx="1" fill="#D9D9D9"/>
</mask>
<g mask="url(#mask0_6005_2990)">
<path d="M13.875 10.125C13.3227 10.125 12.875 9.67729 12.875 9.125V7.75C12.875 7.19772 12.4273 6.75 11.875 6.75H10.5C9.94771 6.75 9.5 6.30228 9.5 5.75V5.5C9.5 4.94772 9.94771 4.5 10.5 4.5H11.875C12.4273 4.5 12.875 4.05228 12.875 3.5V2.125C12.875 1.57272 13.3227 1.125 13.875 1.125H14.125C14.6773 1.125 15.125 1.57272 15.125 2.125V3.5C15.125 4.05228 15.5727 4.5 16.125 4.5H17.5C18.0523 4.5 18.5 4.94772 18.5 5.5V5.75C18.5 6.30228 18.0523 6.75 17.5 6.75H16.125C15.5727 6.75 15.125 7.19772 15.125 7.75V9.125C15.125 9.67729 14.6773 10.125 14.125 10.125H13.875ZM8.375 24.75C7.75625 24.75 7.22656 24.5297 6.78594 24.0891C6.34531 23.6484 6.125 23.1187 6.125 22.5C6.125 21.8813 6.34531 21.3516 6.78594 20.9109C7.22656 20.4703 7.75625 20.25 8.375 20.25C8.99375 20.25 9.52344 20.4703 9.96406 20.9109C10.4047 21.3516 10.625 21.8813 10.625 22.5C10.625 23.1187 10.4047 23.6484 9.96406 24.0891C9.52344 24.5297 8.99375 24.75 8.375 24.75ZM19.625 24.75C19.0063 24.75 18.4766 24.5297 18.0359 24.0891C17.5953 23.6484 17.375 23.1187 17.375 22.5C17.375 21.8813 17.5953 21.3516 18.0359 20.9109C18.4766 20.4703 19.0063 20.25 19.625 20.25C20.2437 20.25 20.7734 20.4703 21.2141 20.9109C21.6547 21.3516 21.875 21.8813 21.875 22.5C21.875 23.1187 21.6547 23.6484 21.2141 24.0891C20.7734 24.5297 20.2437 24.75 19.625 24.75ZM2.625 4.5C2.07272 4.5 1.625 4.05228 1.625 3.5V3.25C1.625 2.69772 2.07272 2.25 2.625 2.25H4.67571C5.06258 2.25 5.41476 2.47316 5.57996 2.82299L9.82004 11.802C9.98524 12.1518 10.3374 12.375 10.7243 12.375H17.378C17.7408 12.375 18.0751 12.1786 18.2516 11.8617L22.0671 5.0133C22.2437 4.69643 22.578 4.5 22.9407 4.5H23.2161C23.9779 4.5 24.4599 5.31774 24.091 5.98424L19.9625 13.4437C19.7563 13.8187 19.4797 14.1094 19.1328 14.3156C18.7859 14.5219 18.4062 14.625 17.9937 14.625H10.2038C9.83908 14.625 9.50331 14.8235 9.32756 15.1431L9.19005 15.3931C8.82351 16.0595 9.30567 16.875 10.0663 16.875H20.875C21.4273 16.875 21.875 17.3227 21.875 17.875V18.125C21.875 18.6773 21.4273 19.125 20.875 19.125H8.375C7.53125 19.125 6.88906 18.7594 6.44844 18.0281C6.00781 17.2969 5.99375 16.5563 6.40625 15.8063L7.67803 13.4982C7.83311 13.2168 7.84349 12.8779 7.70593 12.5875L4.14591 5.07191C3.98047 4.72267 3.62862 4.5 3.24217 4.5H2.625Z" fill="#636363"/>
</g>
</svg>
