<svg width="25" height="18" viewBox="0 0 25 18" fill="none" xmlns="http://www.w3.org/2000/svg">
<path d="M12.5057 3.78947C15.6435 3.78947 18.1901 5.91158 18.1901 8.52632C18.1901 9.14211 18.0423 9.72 17.7808 10.26L21.1005 13.0263C22.8172 11.8326 24.1701 10.2884 25 8.52632C23.0332 4.36737 18.1787 1.42105 12.4943 1.42105C10.9027 1.42105 9.37926 1.65789 7.96953 2.08421L10.4252 4.13053C11.0732 3.91263 11.7667 3.78947 12.5057 3.78947ZM1.13688 1.20316L3.72897 3.36316L4.25193 3.79895C2.36471 5.02105 0.886767 6.65053 0 8.52632C1.9668 12.6853 6.82128 15.6316 12.5057 15.6316C14.2678 15.6316 15.9504 15.3474 17.4852 14.8358L17.9627 15.2337L21.2938 18L22.7376 16.7968L2.58072 0L1.13688 1.20316ZM7.42383 6.44211L9.18599 7.91053C9.12915 8.10947 9.09504 8.31789 9.09504 8.52632C9.09504 10.0989 10.6185 11.3684 12.5057 11.3684C12.7558 11.3684 13.0059 11.34 13.2447 11.2926L15.0068 12.7611C14.2451 13.0737 13.4038 13.2632 12.5057 13.2632C9.36789 13.2632 6.82128 11.1411 6.82128 8.52632C6.82128 7.77789 7.04866 7.07684 7.42383 6.44211ZM12.3238 5.70316L15.905 8.68737L15.9277 8.53579C15.9277 6.96316 14.4043 5.69368 12.5171 5.69368L12.3238 5.70316Z" fill="white"/>
</svg>
