<svg width="29" height="29" viewBox="0 0 29 29" fill="none" xmlns="http://www.w3.org/2000/svg">
<mask id="mask0_6132_4788" style="mask-type:alpha" maskUnits="userSpaceOnUse" x="0" y="0" width="29" height="29">
<rect width="28.2861" height="28.2861" rx="1" fill="#D9D9D9"/>
</mask>
<g mask="url(#mask0_6132_4788)">
<path d="M11.9627 20.5077C11.5721 20.8982 10.939 20.8982 10.5484 20.5077L5.2447 15.2039C4.85418 14.8134 4.85418 14.1802 5.2447 13.7897L5.50998 13.5244C5.9005 13.1339 6.53367 13.1339 6.92419 13.5244L10.5484 17.1487C10.939 17.5392 11.5721 17.5392 11.9627 17.1487L21.362 7.74934C21.7525 7.35882 22.3857 7.35882 22.7762 7.74934L23.0415 8.01462C23.432 8.40514 23.432 9.03831 23.0415 9.42883L11.9627 20.5077Z" fill="white"/>
</g>
<path d="M11.9792 23.9987C13.5829 23.9987 15.187 24.0004 16.7906 23.9979C17.3789 23.9971 17.7704 23.4368 17.5809 22.8762C17.4719 22.5544 17.1865 22.3335 16.8556 22.3147C16.8255 22.3131 16.7954 22.3135 16.7658 22.3135C13.5681 22.3135 10.3703 22.3135 7.173 22.3135C6.74182 22.3135 6.40482 22.5832 6.33109 22.9835C6.23211 23.5178 6.59957 23.9933 7.12291 23.9971C7.8422 24.0025 8.56189 23.9987 9.28117 23.9987C10.1804 23.9987 11.08 23.9987 11.9792 23.9987Z" fill="white"/>
</svg>
