<svg width="28" height="32" viewBox="0 0 28 32" fill="none" xmlns="http://www.w3.org/2000/svg">
<path d="M27.9315 18.8805L25.4342 14.6482C25.376 14.5495 25.285 14.4731 25.1764 14.4318L19.9039 12.4258C20.068 11.8838 20.1565 11.3103 20.1565 10.717C20.1565 7.39519 17.3947 4.69273 14 4.69273C10.6053 4.69273 7.84351 7.39519 7.84351 10.717C7.84351 11.3104 7.93208 11.8838 8.09617 12.4258L2.82365 14.4318C2.71504 14.4731 2.62404 14.5495 2.5658 14.6482L0.0685767 18.8805C-0.00610778 19.0071 -0.0205711 19.1593 0.0290266 19.2972C0.0785602 19.4351 0.187227 19.5449 0.32642 19.5979L2.49713 20.4238V27.3173C2.49713 27.5239 2.62679 27.7093 2.82365 27.7842L13.8144 31.9659C13.8741 31.9887 13.937 32 14 32C14.0629 32 14.1258 31.9887 14.1855 31.9659L25.1763 27.7842C25.3731 27.7093 25.5028 27.5239 25.5028 27.3173V20.4238L27.6735 19.5979C27.8127 19.5449 27.9213 19.4351 27.9709 19.2972C28.0206 19.1593 28.0061 19.0071 27.9315 18.8805ZM14.0001 5.69468C16.8302 5.69468 19.1326 7.94771 19.1326 10.717C19.1326 13.4863 16.8302 15.7393 14.0001 15.7393C11.17 15.7393 8.86752 13.4863 8.86752 10.717C8.86752 7.94771 11.1699 5.69468 14.0001 5.69468ZM14.0001 16.7413C16.4395 16.7413 18.5521 15.3457 19.5479 13.3277L23.5884 14.8948L14.0001 18.543L4.41173 14.8948L8.45218 13.3277C9.44797 15.3457 11.5606 16.7413 14.0001 16.7413ZM1.25386 18.8757L3.23304 15.5214L13.2582 19.3358L11.2791 22.6901L1.25386 18.8757ZM3.52121 20.8134L11.3174 23.7797C11.5528 23.8692 11.82 23.7774 11.9463 23.5633L13.4881 20.9502V30.7667L3.52121 26.9746V20.8134ZM24.4789 26.9746L14.5121 30.7667V20.9502L16.0539 23.5633C16.1803 23.7774 16.4473 23.8693 16.6828 23.7798L24.4789 20.8135V26.9746ZM16.7211 22.6901L14.7419 19.3358L24.7671 15.5214L26.7463 18.8757L16.7211 22.6901ZM12.7262 13.9712C13.0806 13.9712 13.4142 13.8358 13.6654 13.59L17.6565 9.68473C18.1751 9.17724 18.175 8.3515 17.6564 7.84388C17.4052 7.59809 17.0712 7.4627 16.7159 7.4627C16.3607 7.4627 16.0266 7.59809 15.7754 7.84388L12.8375 10.7187L12.0534 9.75324C11.7999 9.44113 11.4206 9.26209 11.0128 9.26209C10.7142 9.26209 10.4207 9.36241 10.1865 9.54452C9.61309 9.9907 9.51747 10.8102 9.97326 11.3712L11.6438 13.4282C11.8935 13.7686 12.2968 13.9713 12.7262 13.9712ZM10.8236 10.3288C10.8925 10.2753 10.9644 10.264 11.0128 10.264C11.1065 10.264 11.1936 10.3051 11.2517 10.3766L12.3928 11.7817C12.4836 11.8935 12.6188 11.9621 12.7645 11.9702C12.9098 11.9781 13.0525 11.9252 13.1556 11.8243L16.4993 8.55239C16.5571 8.49578 16.634 8.46466 16.7159 8.46466C16.7977 8.46466 16.8745 8.49584 16.9323 8.55233C17.0517 8.66925 17.0518 8.85943 16.9324 8.97628L12.9413 12.8816C12.8672 12.9541 12.7834 12.9693 12.7261 12.9693C12.6236 12.9693 12.5314 12.9223 12.473 12.8405C12.4669 12.8319 12.4606 12.8237 12.454 12.8156L10.7748 10.7478C10.6703 10.6191 10.6922 10.4311 10.8236 10.3288ZM13.4881 2.84737V0.500978C13.4881 0.224313 13.7173 0 14.0001 0C14.2828 0 14.5121 0.224313 14.5121 0.500978V2.84737C14.5121 3.12404 14.2828 3.34835 14.0001 3.34835C13.7173 3.34835 13.4881 3.12404 13.4881 2.84737ZM8.31849 2.0542C8.17712 1.81461 8.26109 1.5082 8.50594 1.36986C8.75073 1.23159 9.06393 1.31363 9.2053 1.55322L10.4042 3.58525C10.5456 3.82485 10.4617 4.13126 10.2168 4.26959C10.1362 4.31512 10.0481 4.33678 9.96129 4.33678C9.78434 4.33678 9.61232 4.24692 9.51741 4.08623L8.31849 2.0542ZM4.44776 5.24431C4.58913 5.00465 4.90227 4.92255 5.14712 5.06095L7.22376 6.23411C7.46861 6.37245 7.55251 6.67886 7.41114 6.91845C7.31636 7.07914 7.14421 7.169 6.96726 7.169C6.88041 7.169 6.79242 7.14733 6.71178 7.10181L4.63514 5.92864C4.39029 5.79031 4.30639 5.4839 4.44776 5.24431ZM2.91311 10.5851C2.91311 10.3084 3.14229 10.0841 3.42509 10.0841H5.82293C6.10573 10.0841 6.3349 10.3084 6.3349 10.5851C6.3349 10.8618 6.10573 11.0861 5.82293 11.0861H3.42509C3.14229 11.0861 2.91311 10.8618 2.91311 10.5851ZM17.5598 3.71707L18.7588 1.68504C18.9001 1.44539 19.2133 1.36323 19.4581 1.50168C19.703 1.64002 19.7869 1.94643 19.6456 2.18602L18.4466 4.21805C18.3517 4.37874 18.1797 4.4686 18.0027 4.4686C17.9159 4.4686 17.8278 4.44694 17.7472 4.40141C17.5024 4.26314 17.4185 3.95673 17.5598 3.71707ZM20.4543 7.14683C20.3129 6.90724 20.3968 6.60083 20.6417 6.4625L22.7183 5.28933C22.9632 5.15106 23.2763 5.23316 23.4177 5.47269C23.5591 5.71228 23.4752 6.01869 23.2303 6.15703L21.1537 7.33019C21.073 7.37572 20.985 7.39739 20.8982 7.39739C20.7212 7.39739 20.5491 7.30752 20.4543 7.14683ZM21.9077 10.3478H24.3056C24.5884 10.3478 24.8176 10.5721 24.8176 10.8488C24.8176 11.1255 24.5884 11.3498 24.3056 11.3498H21.9077C21.6249 11.3498 21.3958 11.1255 21.3958 10.8488C21.3958 10.5721 21.625 10.3478 21.9077 10.3478Z" fill="#777777"/>
</svg>
