<svg width="32" height="31" viewBox="0 0 32 31" fill="none" xmlns="http://www.w3.org/2000/svg">
<mask id="mask0_6005_2951" style="mask-type:alpha" maskUnits="userSpaceOnUse" x="0" y="0" width="32" height="31">
<rect x="0.5" width="31" height="31" rx="9" fill="#D9D9D9"/>
</mask>
<g mask="url(#mask0_6005_2951)">
<path d="M9.67321 27.1251C7.46037 27.1251 5.6665 25.3312 5.6665 23.1184V16.9677C5.6665 16.1683 4.75054 15.7154 4.11534 16.2006C3.68907 16.5262 3.07908 16.4418 2.75723 16.0127L2.55898 15.7484C2.13381 15.1815 2.24426 14.378 2.80663 13.9468L4.61662 12.5592C5.27845 12.0518 5.6665 11.2653 5.6665 10.4313V9.04175C5.6665 8.32838 6.2448 7.75008 6.95817 7.75008H7.57621C7.94825 7.75008 8.24984 8.05167 8.24984 8.42371C8.24984 8.98128 8.88853 9.29745 9.33191 8.95938L13.875 5.4953C15.1297 4.53852 16.8694 4.53915 18.1236 5.49683L29.1885 13.9465C29.7518 14.3766 29.8602 15.1818 29.4307 15.7456L29.2423 15.9928C28.919 16.4171 28.3139 16.5012 27.8871 16.1811C27.2468 15.701 26.3332 16.1578 26.3332 16.9581V23.0886C26.3332 25.3179 24.526 27.1251 22.2967 27.1251H9.67321ZM8.24984 24.5417H12.1248C13.5516 24.5417 14.7082 23.3852 14.7082 21.9584V20.6667C14.7082 19.9534 15.2865 19.3751 15.9998 19.3751C16.7132 19.3751 17.2915 19.9534 17.2915 20.6667V21.9584C17.2915 23.3852 18.4481 24.5417 19.8748 24.5417H23.7498V16.8825C23.7498 14.4648 22.6215 12.1856 20.699 10.7196C17.9236 8.60342 14.0761 8.60342 11.3007 10.7196C9.37813 12.1856 8.24984 14.4648 8.24984 16.8825V24.5417ZM6.95817 6.45842C6.2448 6.45842 5.63839 5.86409 5.86577 5.18793C6.0493 4.64216 6.35961 4.15072 6.79671 3.71362C7.55018 2.96015 8.46512 2.58341 9.5415 2.58341C9.90748 2.58341 10.2142 2.45963 10.4618 2.21206C10.8602 1.81371 11.2899 1.29175 11.8532 1.29175H12.1248C12.8382 1.29175 13.4446 1.88608 13.2172 2.56224C13.0337 3.10801 12.7234 3.59944 12.2863 4.03654C11.5328 4.79001 10.6179 5.16675 9.5415 5.16675C9.17553 5.16675 8.86876 5.29053 8.62119 5.5381C8.22284 5.93646 7.79314 6.45842 7.22978 6.45842H6.95817Z" fill="#EF8833"/>
</g>
</svg>
