<svg width="27" height="27" viewBox="0 0 27 27" fill="none" xmlns="http://www.w3.org/2000/svg">
<path d="M10.625 20.2458C10.625 18.6565 11.9125 17.3687 13.5 17.3687C15.0875 17.3687 16.375 18.6565 16.375 20.2458V26.5H10.625V20.2458Z" stroke="#777777"/>
<path d="M19.625 20.2458L19.625 20.2421C19.5994 16.7919 16.7238 14.0161 13.3511 14.0975C10.0878 14.1763 7.39787 16.9056 7.37498 20.2424V20.2458V26.5H3.375C1.78749 26.5 0.5 25.2122 0.5 23.6229L0.5 13.3723L0.5 13.3721C0.499877 12.9094 0.682723 12.4655 1.0085 12.1373L1.01489 12.1308L1.02104 12.1242L10.5644 1.78577C10.6355 1.70878 10.7097 1.63452 10.7869 1.56311C12.4092 0.0628399 14.9397 0.162504 16.4391 1.78583L16.4392 1.78598L25.9995 12.1278L25.9994 12.1279L26.0073 12.1361C26.3235 12.4629 26.5002 12.9001 26.5 13.3552V13.3554V23.6229C26.5 25.2122 25.2125 26.5 23.625 26.5H19.625L19.625 20.2458Z" stroke="#777777"/>
</svg>
