<svg width="38" height="33" viewBox="0 0 38 33" fill="none" xmlns="http://www.w3.org/2000/svg">
<path d="M36.8846 2.19238C36.8846 1.53423 36.3504 1.00008 35.6923 1.00008H2.30766C1.64951 1.00008 1.11536 1.53423 1.11536 2.19238V16.5001C1.11536 17.1582 1.64951 17.6924 2.30766 17.6924H35.6923C36.3504 17.6924 36.8846 17.1582 36.8846 16.5001V2.19238Z" stroke="#485D75" stroke-width="2" stroke-miterlimit="10" stroke-linecap="round" stroke-linejoin="round"/>
<path d="M18.9999 5.76925C20.9754 5.76925 22.5768 7.37069 22.5768 9.34617C22.5768 11.3217 20.9754 12.9231 18.9999 12.9231C17.0244 12.9231 15.423 11.3217 15.423 9.34617C15.423 7.37069 17.0244 5.76925 18.9999 5.76925Z" stroke="#485D75" stroke-width="2" stroke-miterlimit="10" stroke-linecap="round" stroke-linejoin="round"/>
<path d="M28.5383 9.34619H30.9229" stroke="#485D75" stroke-width="2" stroke-miterlimit="10" stroke-linecap="round" stroke-linejoin="round"/>
<path d="M9.46152 9.34619H7.0769" stroke="#485D75" stroke-width="2" stroke-miterlimit="10" stroke-linecap="round" stroke-linejoin="round"/>
<path d="M14.2307 27.2308L18.9999 32L23.7692 27.2308" stroke="#485D75" stroke-width="2" stroke-miterlimit="10" stroke-linecap="round" stroke-linejoin="round"/>
<path d="M19 32V22.4615" stroke="#485D75" stroke-width="2" stroke-miterlimit="10" stroke-linecap="round" stroke-linejoin="round"/>
</svg>
