<svg width="14" height="14" viewBox="0 0 14 14" fill="none" xmlns="http://www.w3.org/2000/svg">
<g clip-path="url(#clip0_340_288)">
<path d="M2.37307 10.5H11.5057C11.7868 10.5 12.0637 10.4323 12.3131 10.3026C12.5625 10.173 12.777 9.98516 12.9384 9.75506C13.0998 9.52497 13.2034 9.25938 13.2405 8.98077C13.2776 8.70215 13.247 8.41871 13.1513 8.15442L11.4877 3.55483C11.2035 2.53266 10.5924 1.63169 9.74775 0.989724C8.90309 0.347754 7.87141 0.000123712 6.81048 5.93431e-10C5.70608 -1.72622e-05 4.63468 0.376593 3.77319 1.06765C2.9117 1.75871 2.31164 2.72289 2.07207 3.801L0.701235 8.23433C0.620525 8.49607 0.602381 8.77311 0.648262 9.04314C0.694143 9.31317 0.802769 9.56867 0.965399 9.78906C1.12803 10.0095 1.34012 10.1886 1.58461 10.3121C1.8291 10.4356 2.09917 10.4999 2.37307 10.5Z" fill="white"/>
<path d="M4.1416 11.6667C4.27549 12.326 4.63319 12.9188 5.15412 13.3445C5.67504 13.7703 6.32714 14.0029 6.99993 14.0029C7.67273 14.0029 8.32483 13.7703 8.84575 13.3445C9.36668 12.9188 9.72438 12.326 9.85827 11.6667H4.1416Z" fill="white"/>
</g>
<defs>
<clipPath id="clip0_340_288">
<rect width="14" height="14" fill="white"/>
</clipPath>
</defs>
</svg>
