<svg width="36" height="30" viewBox="0 0 36 30" fill="none" xmlns="http://www.w3.org/2000/svg">
<path d="M34.1539 27.9231C34.1539 28.5176 33.6714 29 33.077 29H2.92311C2.32865 29 1.84619 28.5176 1.84619 27.9231V15C1.84619 14.4056 2.32865 13.9231 2.92311 13.9231H33.077C33.6714 13.9231 34.1539 14.4056 34.1539 15V27.9231Z" stroke="#485D75" stroke-width="2" stroke-miterlimit="10" stroke-linecap="round" stroke-linejoin="round"/>
<path d="M18.0001 24.6923C19.7844 24.6923 21.2308 23.2458 21.2308 21.4615C21.2308 19.6772 19.7844 18.2307 18.0001 18.2307C16.2158 18.2307 14.7693 19.6772 14.7693 21.4615C14.7693 23.2458 16.2158 24.6923 18.0001 24.6923Z" stroke="#485D75" stroke-width="2" stroke-miterlimit="10" stroke-linecap="round" stroke-linejoin="round"/>
<path d="M26.6155 21.4614H28.7693" stroke="#485D75" stroke-width="2" stroke-miterlimit="10" stroke-linecap="round" stroke-linejoin="round"/>
<path d="M9.38468 21.4614H7.23083" stroke="#485D75" stroke-width="2" stroke-miterlimit="10" stroke-linecap="round" stroke-linejoin="round"/>
<path d="M13.6924 5.30769L18.0001 1L22.3078 5.30769" stroke="#485D75" stroke-width="2" stroke-miterlimit="10" stroke-linecap="round" stroke-linejoin="round"/>
<path d="M18 1V9.61539" stroke="#485D75" stroke-width="2" stroke-miterlimit="10" stroke-linecap="round" stroke-linejoin="round"/>
</svg>
