<svg width="36" height="32" viewBox="0 0 36 32" fill="none" xmlns="http://www.w3.org/2000/svg">
<path d="M6 26.3584C6 24.6317 6.63214 22.9758 7.75736 21.7549C8.88258 20.5339 10.4087 19.848 12 19.848H24C25.5913 19.848 27.1174 20.5339 28.2426 21.7549C29.3679 22.9758 30 24.6317 30 26.3584C30 27.2217 29.6839 28.0497 29.1213 28.6601C28.5587 29.2706 27.7956 29.6135 27 29.6135H9C8.20435 29.6135 7.44129 29.2706 6.87868 28.6601C6.31607 28.0497 6 27.2217 6 26.3584Z" stroke="#777777" stroke-width="1.5" stroke-linejoin="round"/>
<path d="M18 16.7804C20.4853 16.7804 22.5 14.5943 22.5 11.8977C22.5 9.20098 20.4853 7.01489 18 7.01489C15.5147 7.01489 13.5 9.20098 13.5 11.8977C13.5 14.5943 15.5147 16.7804 18 16.7804Z" stroke="#777777" stroke-width="1.5"/>
</svg>
