<svg width="31" height="32" viewBox="0 0 31 32" fill="none" xmlns="http://www.w3.org/2000/svg">
<mask id="mask0_6005_2993" style="mask-type:alpha" maskUnits="userSpaceOnUse" x="0" y="0" width="31" height="32">
<rect width="31" height="32" rx="2" fill="#D9D9D9"/>
</mask>
<g mask="url(#mask0_6005_2993)">
<path d="M15.4998 16.0002C14.079 16.0002 12.8627 15.4779 11.8509 14.4335C10.8391 13.3891 10.3332 12.1335 10.3332 10.6668C10.3332 9.20016 10.8391 7.94461 11.8509 6.90016C12.8627 5.85572 14.079 5.3335 15.4998 5.3335C16.9207 5.3335 18.137 5.85572 19.1488 6.90016C20.1606 7.94461 20.6665 9.20016 20.6665 10.6668C20.6665 12.1335 20.1606 13.3891 19.1488 14.4335C18.137 15.4779 16.9207 16.0002 15.4998 16.0002ZM7.1665 26.6668C6.06193 26.6668 5.1665 25.7714 5.1665 24.6668V22.9335C5.1665 22.1779 5.35487 21.4835 5.73161 20.8502C6.10834 20.2168 6.60887 19.7335 7.23317 19.4002C8.56789 18.7113 9.92414 18.1946 11.3019 17.8502C12.6797 17.5057 14.079 17.3335 15.4998 17.3335C16.9207 17.3335 18.32 17.5057 19.6978 17.8502C21.0755 18.1946 22.4318 18.7113 23.7665 19.4002C24.3908 19.7335 24.8913 20.2168 25.2681 20.8502C25.6448 21.4835 25.8332 22.1779 25.8332 22.9335V24.6668C25.8332 25.7714 24.9377 26.6668 23.8332 26.6668H7.1665ZM7.74984 22.9335C7.74984 23.5226 8.2274 24.0002 8.8165 24.0002H22.1832C22.7723 24.0002 23.2498 23.5226 23.2498 22.9335C23.2498 22.6891 23.1906 22.4668 23.0722 22.2668C22.9538 22.0668 22.7978 21.9113 22.604 21.8002C21.4415 21.2002 20.2682 20.7502 19.0842 20.4502C17.9002 20.1502 16.7054 20.0002 15.4998 20.0002C14.2943 20.0002 13.0995 20.1502 11.9155 20.4502C10.7314 20.7502 9.55817 21.2002 8.39567 21.8002C8.20192 21.9113 8.04584 22.0668 7.92744 22.2668C7.80904 22.4668 7.74984 22.6891 7.74984 22.9335ZM15.4998 13.3335C16.2103 13.3335 16.8184 13.0724 17.3243 12.5502C17.8302 12.0279 18.0832 11.4002 18.0832 10.6668C18.0832 9.9335 17.8302 9.30572 17.3243 8.7835C16.8184 8.26127 16.2103 8.00016 15.4998 8.00016C14.7894 8.00016 14.1813 8.26127 13.6754 8.7835C13.1695 9.30572 12.9165 9.9335 12.9165 10.6668C12.9165 11.4002 13.1695 12.0279 13.6754 12.5502C14.1813 13.0724 14.7894 13.3335 15.4998 13.3335Z" fill="#636363"/>
</g>
</svg>
