<svg width="29" height="29" viewBox="0 0 29 29" fill="none" xmlns="http://www.w3.org/2000/svg">
<path d="M12.2343 5.66323H14.5V3.39746H12.2343V5.66323Z" fill="#2E4662"/>
<path d="M12.2343 19.9369H14.5V16.708H12.2343V19.9369Z" fill="#2E4662"/>
<path d="M14.5 24.4685V29.0001H19.0315V26.7343H16.7658V24.4685H14.5Z" fill="#2E4662"/>
<path d="M23.5629 12.1779H16.7656V14.4436H23.5629V12.1779Z" fill="#2E4662"/>
<path d="M23.5632 16.7093H26.7355V14.4435H23.5632V16.7093Z" fill="#2E4662"/>
<path d="M26.7341 16.7092V19.9381H23.5618V22.2039H28.9987V16.7104H26.7329L26.7341 16.7092Z" fill="#2E4662"/>
<path d="M14.5 3.39866H16.7658V0H14.5V3.39866Z" fill="#2E4662"/>
<path d="M14.5 10.1948H16.7658V5.66321H14.5V7.92898H12.2343V14.4422H14.5V10.1948Z" fill="#2E4662"/>
<path d="M3.39866 12.1779H0V16.7094H2.26577V14.4436H5.66443V12.1779H3.39866Z" fill="#2E4662"/>
<path d="M16.7658 14.4435H14.5V16.7093H16.7658V14.4435Z" fill="#2E4662"/>
<path d="M21.2974 18.9738H23.5631V16.708H21.2974V18.9738Z" fill="#2E4662"/>
<path d="M26.7343 14.4436H29V12.1779H26.7343V14.4436Z" fill="#2E4662"/>
<path d="M19.0315 16.7092H16.7658V19.9381H14.5V22.2039H19.0315V16.7104V16.7092Z" fill="#2E4662"/>
<path d="M12.2343 24.4687H14.5V22.2029H12.2343V24.4687Z" fill="#2E4662"/>
<path d="M19.0314 22.2029V24.4687H23.5629V22.2029H19.0314Z" fill="#2E4662"/>
<path d="M25.8275 24.4685H23.5618V26.7343H25.8275V24.4685Z" fill="#2E4662"/>
<path d="M25.8276 29H29V26.7343H25.8276V29Z" fill="#2E4662"/>
<path d="M21.2974 29H23.5631V26.7343H21.2974V29Z" fill="#2E4662"/>
<path d="M10.196 14.4436V12.1779H7.9302V14.4436H5.66443V16.7094H12.2342V14.4436H10.1948H10.196Z" fill="#2E4662"/>
<mask id="mask0_4_2456" style="mask-type:luminance" maskUnits="userSpaceOnUse" x="0" y="0" width="29" height="29">
<path d="M29 0H0V29H29V0Z" fill="white"/>
</mask>
<g mask="url(#mask0_4_2456)">
<path d="M10.1956 10.1949H0.000854492V0.00012207H10.1956V10.1949ZM2.26662 7.92915H7.93106V2.26472H2.26662V7.92915Z" fill="#2E4662"/>
</g>
<path d="M6.23025 6.23025H3.96448V3.96448H6.23025V6.23025Z" fill="#2E4662"/>
<mask id="mask1_4_2456" style="mask-type:luminance" maskUnits="userSpaceOnUse" x="0" y="0" width="29" height="29">
<path d="M29 0H0V29H29V0Z" fill="white"/>
</mask>
<g mask="url(#mask1_4_2456)">
<path d="M29 10.1948H18.8052V0H29V10.1948ZM21.0709 7.92902H26.7354V2.26459H21.0709V7.92902Z" fill="#2E4662"/>
</g>
<path d="M25.0355 6.23025H22.7698V3.96448H25.0355V6.23025Z" fill="#2E4662"/>
<mask id="mask2_4_2456" style="mask-type:luminance" maskUnits="userSpaceOnUse" x="0" y="0" width="29" height="29">
<path d="M29 0H0V29H29V0Z" fill="white"/>
</mask>
<g mask="url(#mask2_4_2456)">
<path d="M10.196 29.0002H0.0012207V18.8054H10.196V29.0002ZM2.26699 26.7344H7.93142V21.07H2.26699V26.7344Z" fill="#2E4662"/>
</g>
<path d="M6.23025 25.0342H3.96448V22.7684H6.23025V25.0342Z" fill="#2E4662"/>
</svg>
