<svg width="22" height="24" viewBox="0 0 22 24" fill="none" xmlns="http://www.w3.org/2000/svg">
<path d="M1.51552 8.02344C1.32379 8.02344 1.13991 7.93701 1.00434 7.78317C0.868767 7.62933 0.792603 7.42069 0.792603 7.20312V3.10156C0.792603 2.44888 1.0211 1.82293 1.42781 1.36142C1.83453 0.899902 2.38616 0.640625 2.96135 0.640625H6.9374C7.12912 0.640625 7.313 0.72705 7.44857 0.880889C7.58415 1.03473 7.66031 1.24338 7.66031 1.46094C7.66031 1.6785 7.58415 1.88715 7.44857 2.04099C7.313 2.19482 7.12912 2.28125 6.9374 2.28125H2.96135C2.76962 2.28125 2.58575 2.36768 2.45017 2.52151C2.3146 2.67535 2.23844 2.884 2.23844 3.10156V7.20312C2.23844 7.42069 2.16227 7.62933 2.0267 7.78317C1.89113 7.93701 1.70725 8.02344 1.51552 8.02344Z" fill="white"/>
<path d="M20.3113 8.02344C20.1196 8.02344 19.9357 7.93701 19.8001 7.78317C19.6645 7.62933 19.5884 7.42069 19.5884 7.20312V3.10156C19.5884 2.884 19.5122 2.67535 19.3766 2.52151C19.2411 2.36768 19.0572 2.28125 18.8655 2.28125H14.8894C14.6977 2.28125 14.5138 2.19482 14.3782 2.04099C14.2427 1.88715 14.1665 1.6785 14.1665 1.46094C14.1665 1.24338 14.2427 1.03473 14.3782 0.880889C14.5138 0.72705 14.6977 0.640625 14.8894 0.640625H18.8655C19.4407 0.640625 19.9923 0.899902 20.399 1.36142C20.8057 1.82293 21.0342 2.44888 21.0342 3.10156V7.20312C21.0342 7.42069 20.958 7.62933 20.8225 7.78317C20.6869 7.93701 20.503 8.02344 20.3113 8.02344Z" fill="white"/>
<path d="M18.8655 23.6094H14.8894C14.6977 23.6094 14.5138 23.523 14.3782 23.3691C14.2427 23.2153 14.1665 23.0066 14.1665 22.7891C14.1665 22.5715 14.2427 22.3629 14.3782 22.209C14.5138 22.0552 14.6977 21.9688 14.8894 21.9688H18.8655C19.0572 21.9688 19.2411 21.8823 19.3766 21.7285C19.5122 21.5746 19.5884 21.366 19.5884 21.1484V17.0469C19.5884 16.8293 19.6645 16.6207 19.8001 16.4668C19.9357 16.313 20.1196 16.2266 20.3113 16.2266C20.503 16.2266 20.6869 16.313 20.8225 16.4668C20.958 16.6207 21.0342 16.8293 21.0342 17.0469V21.1484C21.0342 21.8011 20.8057 22.4271 20.399 22.8886C19.9923 23.3501 19.4407 23.6094 18.8655 23.6094Z" fill="white"/>
<path d="M6.9374 23.6094H2.96135C2.38616 23.6094 1.83453 23.3501 1.42781 22.8886C1.0211 22.4271 0.792603 21.8011 0.792603 21.1484V17.0469C0.792603 16.8293 0.868767 16.6207 1.00434 16.4668C1.13991 16.313 1.32379 16.2266 1.51552 16.2266C1.70725 16.2266 1.89113 16.313 2.0267 16.4668C2.16227 16.6207 2.23844 16.8293 2.23844 17.0469V21.1484C2.23844 21.366 2.3146 21.5746 2.45017 21.7285C2.58575 21.8823 2.76962 21.9688 2.96135 21.9688H6.9374C7.12912 21.9688 7.313 22.0552 7.44857 22.209C7.58415 22.3629 7.66031 22.5715 7.66031 22.7891C7.66031 23.0066 7.58415 23.2153 7.44857 23.3691C7.313 23.523 7.12912 23.6094 6.9374 23.6094Z" fill="white"/>
<path d="M20.3114 12.9453H1.51552C1.32379 12.9453 1.13991 12.8589 1.00434 12.705C0.868767 12.5512 0.792603 12.3426 0.792603 12.125C0.792603 11.9074 0.868767 11.6988 1.00434 11.545C1.13991 11.3911 1.32379 11.3047 1.51552 11.3047H20.3114C20.5031 11.3047 20.687 11.3911 20.8225 11.545C20.9581 11.6988 21.0343 11.9074 21.0343 12.125C21.0343 12.3426 20.9581 12.5512 20.8225 12.705C20.687 12.8589 20.5031 12.9453 20.3114 12.9453Z" fill="white"/>
</svg>
