<svg width="18" height="18" viewBox="0 0 18 18" fill="none" xmlns="http://www.w3.org/2000/svg">
<path fill-rule="evenodd" clip-rule="evenodd" d="M7.75 2.12507C7.01131 2.12507 6.27986 2.27056 5.59741 2.55325C4.91495 2.83593 4.29485 3.25026 3.77252 3.77259C3.25019 4.29492 2.83586 4.91502 2.55318 5.59748C2.27049 6.27993 2.125 7.01138 2.125 7.75007C2.125 8.48876 2.27049 9.22021 2.55318 9.90266C2.83586 10.5851 3.25019 11.2052 3.77252 11.7275C4.29485 12.2499 4.91495 12.6642 5.59741 12.9469C6.27986 13.2296 7.01131 13.3751 7.75 13.3751C9.24184 13.3751 10.6726 12.7824 11.7275 11.7275C12.7824 10.6727 13.375 9.24191 13.375 7.75007C13.375 6.25823 12.7824 4.82749 11.7275 3.77259C10.6726 2.7177 9.24184 2.12507 7.75 2.12507ZM0.875 7.75007C0.875146 6.64598 1.1412 5.55817 1.65066 4.57865C2.16012 3.59913 2.89799 2.75672 3.80186 2.12267C4.70574 1.48862 5.74902 1.08159 6.84347 0.936007C7.93791 0.790423 9.05132 0.91057 10.0895 1.28628C11.1277 1.662 12.0601 2.28223 12.808 3.0945C13.5558 3.90678 14.0969 4.88722 14.3857 5.95287C14.6745 7.01853 14.7023 8.13805 14.4669 9.21675C14.2315 10.2955 13.7398 11.3016 13.0333 12.1501L16.9417 16.0584C17.0031 16.1156 17.0523 16.1846 17.0865 16.2613C17.1206 16.338 17.139 16.4207 17.1405 16.5046C17.142 16.5886 17.1265 16.6719 17.0951 16.7497C17.0637 16.8276 17.0169 16.8983 16.9575 16.9576C16.8982 17.017 16.8275 17.0637 16.7497 17.0952C16.6718 17.1266 16.5885 17.142 16.5046 17.1406C16.4206 17.1391 16.3379 17.1207 16.2612 17.0866C16.1846 17.0524 16.1156 17.0031 16.0583 16.9417L12.15 13.0334C11.146 13.8696 9.92452 14.4025 8.6286 14.5695C7.33268 14.7364 6.01602 14.5307 4.83284 13.9762C3.64967 13.4218 2.64899 12.5417 1.94803 11.439C1.24707 10.3363 0.874856 9.0567 0.875 7.75007Z" fill="black" fill-opacity="0.5"/>
</svg>
