<svg width="30" height="30" viewBox="0 0 30 30" fill="none" xmlns="http://www.w3.org/2000/svg">
<mask id="mask0_6005_2987" style="mask-type:alpha" maskUnits="userSpaceOnUse" x="0" y="0" width="30" height="30">
<rect width="29.5884" height="29.5884" rx="1" fill="#D9D9D9"/>
</mask>
<g mask="url(#mask0_6005_2987)">
<path d="M21.2342 15.3198C20.8437 15.7103 20.2105 15.7103 19.82 15.3198L14.2686 9.76841C13.8781 9.37788 13.8781 8.74472 14.2686 8.35419L19.82 2.80281C20.2105 2.41229 20.8437 2.41229 21.2342 2.80281L26.7856 8.35419C27.1761 8.74472 27.1761 9.37788 26.7856 9.76841L21.2342 15.3198ZM4.69873 13.5612C4.14645 13.5612 3.69873 13.1135 3.69873 12.5612V4.69841C3.69873 4.14612 4.14645 3.69841 4.69873 3.69841H12.5615C13.1138 3.69841 13.5615 4.14612 13.5615 4.69841V12.5612C13.5615 13.1135 13.1138 13.5612 12.5615 13.5612H4.69873ZM17.0272 25.8897C16.4749 25.8897 16.0272 25.442 16.0272 24.8897V17.0269C16.0272 16.4746 16.4749 16.0269 17.0272 16.0269H24.89C25.4423 16.0269 25.89 16.4746 25.89 17.0269V24.8897C25.89 25.442 25.4423 25.8897 24.89 25.8897H17.0272ZM4.69873 25.8897C4.14645 25.8897 3.69873 25.442 3.69873 24.8897V17.0269C3.69873 16.4746 4.14645 16.0269 4.69873 16.0269H12.5615C13.1138 16.0269 13.5615 16.4746 13.5615 17.0269V24.8897C13.5615 25.442 13.1138 25.8897 12.5615 25.8897H4.69873ZM6.16443 10.0955C6.16443 10.6478 6.61214 11.0955 7.16443 11.0955H10.0958C10.6481 11.0955 11.0958 10.6478 11.0958 10.0955V7.16411C11.0958 6.61182 10.6481 6.16411 10.0958 6.16411H7.16443C6.61214 6.16411 6.16443 6.61182 6.16443 7.16411V10.0955ZM19.8508 11.8678C20.2414 12.2583 20.8745 12.2583 21.2651 11.8678L23.3336 9.79923C23.7242 9.40871 23.7242 8.77554 23.3336 8.38502L21.2651 6.31643C20.8745 5.92591 20.2414 5.92591 19.8508 6.31643L17.7823 8.38502C17.3917 8.77554 17.3917 9.40871 17.7823 9.79923L19.8508 11.8678ZM18.4929 22.424C18.4929 22.9763 18.9406 23.424 19.4929 23.424H22.4243C22.9766 23.424 23.4243 22.9763 23.4243 22.424V19.4926C23.4243 18.9403 22.9766 18.4926 22.4243 18.4926H19.4929C18.9406 18.4926 18.4929 18.9403 18.4929 19.4926V22.424ZM6.16443 22.424C6.16443 22.9763 6.61214 23.424 7.16443 23.424H10.0958C10.6481 23.424 11.0958 22.9763 11.0958 22.424V19.4926C11.0958 18.9403 10.6481 18.4926 10.0958 18.4926H7.16443C6.61214 18.4926 6.16443 18.9403 6.16443 19.4926V22.424Z" fill="#636363"/>
</g>
</svg>
