<svg width="23" height="24" viewBox="0 0 23 24" fill="none" xmlns="http://www.w3.org/2000/svg">
<mask id="mask0_6007_3463" style="mask-type:alpha" maskUnits="userSpaceOnUse" x="0" y="0" width="23" height="24">
<rect y="0.5" width="23" height="23" rx="4" fill="#D9D9D9"/>
</mask>
<g mask="url(#mask0_6007_3463)">
<path d="M6.80449 18.0373C6.434 18.4078 5.83332 18.4078 5.46283 18.0373C5.09233 17.6668 5.09233 17.0662 5.46283 16.6957L7.47533 14.6832C8.95729 13.2012 8.95729 10.7985 7.47533 9.3165L5.46283 7.304C5.09233 6.93351 5.09233 6.33283 5.46283 5.96234C5.83332 5.59185 6.434 5.59185 6.80449 5.96234L8.81699 7.97484C10.299 9.4568 12.7017 9.4568 14.1837 7.97484L16.1962 5.96234C16.5667 5.59185 17.1673 5.59185 17.5378 5.96234C17.9083 6.33283 17.9083 6.93351 17.5378 7.304L15.5253 9.3165C14.0434 10.7985 14.0434 13.2012 15.5253 14.6832L17.5378 16.6957C17.9083 17.0662 17.9083 17.6668 17.5378 18.0373C17.1673 18.4078 16.5667 18.4078 16.1962 18.0373L14.1837 16.0248C12.7017 14.5429 10.299 14.5429 8.81699 16.0248L6.80449 18.0373Z" fill="#636363" fill-opacity="0.57"/>
</g>
</svg>
